<svg xmlns="http://www.w3.org/2000/svg" data-name="Layer 1" viewBox="0 0 512 640" x="0px" y="0px"><title>School</title><path d="M240,272a6,6,0,0,0-6-6H183a6,6,0,0,0-6,6v38a6,6,0,0,0,6,6h51a6,6,0,0,0,6-6Zm-12,33H189V278h39Z"/><path d="M335,272a6,6,0,0,0-6-6H278a6,6,0,0,0-6,6v38a6,6,0,0,0,6,6h51a6,6,0,0,0,6-6Zm-51,6h39v27H284Z"/><path d="M240,343a6,6,0,0,0-6-6H183a6,6,0,0,0-6,6v38a6,6,0,0,0,6,6h51a6,6,0,0,0,6-6Zm-12,32H189V349h39Z"/><path d="M335,343a6,6,0,0,0-6-6H278a6,6,0,0,0-6,6v38a6,6,0,0,0,6,6h51a6,6,0,0,0,6-6Zm-51,6h39v26H284Z"/><path d="M487.143,305H374V224.03a6.206,6.206,0,0,0-2.874-4.985L262,146.113V97h73.985a6.049,6.049,0,0,0,4.773-9.7L323.215,64.264l17.543-23.03a5.655,5.655,0,0,0,.6-6.1A5.821,5.821,0,0,0,335.985,32H256c-3.313,0-6,2.278-6,5.592V146.113L140.874,219.045A6.206,6.206,0,0,0,138,224.03V305H24.857A6.112,6.112,0,0,0,19,311.265V474.408A5.543,5.543,0,0,0,24.857,480H144v.4s.4-.4.424-.4H367.576c.025,0,.424.4.424.4V480H487.143A5.544,5.544,0,0,0,493,474.408V311.265A6.113,6.113,0,0,0,487.143,305ZM138,317v39H31V317ZM31,368H138V468H31ZM262,44h61.871L310.9,60.82a5.914,5.914,0,0,0,0,7.213L323.871,85H262Zm22,424H228V421h56Zm78,0H296V414.742A5.4,5.4,0,0,0,290.465,409h-68.93A5.4,5.4,0,0,0,216,414.742V468H150V227.233l106-70.7,106,70.7ZM481,317v39H374V317ZM374,468V368H481V468Z"/><text x="0" y="527" fill="#000000" font-size="5px" font-weight="bold" font-family="'Helvetica Neue', Helvetica, Arial-Unicode, Arial, Sans-serif">Created by Shastry</text><text x="0" y="532" fill="#000000" font-size="5px" font-weight="bold" font-family="'Helvetica Neue', Helvetica, Arial-Unicode, Arial, Sans-serif">from the Noun Project</text></svg>